<?xml version="1.0" standalone="no"?>
<!DOCTYPE svg PUBLIC "-//W3C//DTD SVG 20010904//EN"
 "http://www.w3.org/TR/2001/REC-SVG-20010904/DTD/svg10.dtd">
<svg version="1.0" xmlns="http://www.w3.org/2000/svg"
 width="44.000000pt" height="56.000000pt" viewBox="0 0 44.000000 56.000000"
 preserveAspectRatio="xMidYMid meet">

<g transform="translate(0.000000,56.000000) scale(0.100000,-0.100000)"
fill="#000000" stroke="none">
<path d="M0 280 l0 -280 220 0 220 0 0 280 0 280 -220 0 -220 0 0 -280z m212
113 c17 -15 19 -15 36 0 45 41 122 3 122 -59 0 -18 -6 -39 -14 -46 -11 -12
-11 -17 0 -33 20 -28 17 -78 -6 -103 -25 -26 -76 -29 -102 -5 -17 15 -19 15
-36 0 -45 -41 -122 -3 -122 59 0 18 7 40 16 49 15 15 15 17 0 34 -39 43 -2
121 57 121 17 0 39 -7 49 -17z"/>
</g>
</svg>
